<svg width="27" height="18" viewBox="0 0 27 18" fill="none" xmlns="http://www.w3.org/2000/svg">
<path d="M26.5344 17.9996H0.465538C0.208459 17.9996 0 17.7875 0 17.5259V0.473695C0 0.212111 0.208459 5.24007e-08 0.465538 5.24007e-08H26.5345C26.7915 5.24007e-08 27 0.212111 27 0.473695V17.5259C26.9999 17.7876 26.7915 17.9996 26.5344 17.9996Z" fill="#F5F5F5"/>
<path d="M26.9999 1.38465H0V0.473695C0 0.212111 0.208459 5.24007e-08 0.465538 5.24007e-08H26.5345C26.7915 5.24007e-08 27 0.212111 27 0.473695L26.9999 1.38465Z" fill="#FF4B55"/>
<path d="M26.9999 5.53839H0V6.92299H26.9999V5.53839Z" fill="#FF4B55"/>
<path d="M26.9999 2.76923H0V4.15382H26.9999V2.76923Z" fill="#FF4B55"/>
<path d="M26.9999 9.69221H0.465538C0.208459 9.69221 0 9.4801 0 9.21851V8.30756H26.9999V9.69221Z" fill="#FF4B55"/>
<path d="M26.9999 13.8472H0V15.2318H26.9999V13.8472Z" fill="#FF4B55"/>
<path d="M26.5344 17.9997H0.465538C0.208459 17.9997 0 17.7875 0 17.526V16.6151H26.9999V17.526C26.9999 17.7876 26.7915 17.9997 26.5344 17.9997Z" fill="#FF4B55"/>
<path d="M26.9999 11.0767H0V12.4613H26.9999V11.0767Z" fill="#FF4B55"/>
<path d="M12.1034 0.00201418H0.465538C0.208459 0.00201418 0 0.214072 0 0.475656V9.22035C0 9.48193 0.208459 9.69405 0.465538 9.69405H12.1035C12.3605 9.69405 12.569 9.48193 12.569 9.22035V0.475656C12.569 0.214072 12.3605 0.00201418 12.1034 0.00201418Z" fill="#41479B"/>
<path d="M1.30752 1.08663L1.41056 1.40107L1.7363 1.40359C1.77849 1.40396 1.79594 1.4587 1.76204 1.48418L1.5 1.68111L1.5983 1.9971C1.61106 2.03799 1.56523 2.0719 1.5309 2.0469L1.26591 1.85421L1.00092 2.04695C0.966592 2.0719 0.920872 2.03805 0.933528 1.99716L1.03182 1.68116L0.769788 1.48424C0.73588 1.4587 0.753335 1.40402 0.795522 1.40364L1.12126 1.40112L1.2243 1.08668C1.23759 1.0459 1.29412 1.0459 1.30752 1.08663Z" fill="#F5F5F5"/>
<path d="M1.30709 2.73179L1.41013 3.04623L1.73587 3.04875C1.77806 3.04913 1.79552 3.10386 1.76161 3.12935L1.49957 3.32627L1.59787 3.64227C1.61063 3.68315 1.5648 3.71707 1.53047 3.69206L1.26548 3.49937L1.0005 3.69211C0.966165 3.71707 0.920444 3.68321 0.933101 3.64232L1.0314 3.32633L0.769361 3.1294C0.735453 3.10386 0.752908 3.04918 0.795095 3.04881L1.12083 3.04628L1.22388 2.73185C1.23717 2.69112 1.2937 2.69112 1.30709 2.73179Z" fill="#F5F5F5"/>
<path d="M1.30709 4.37596L1.41013 4.69039L1.73587 4.69292C1.77806 4.69329 1.79552 4.74802 1.76161 4.77351L1.49957 4.97044L1.59787 5.28643C1.61063 5.32732 1.5648 5.36123 1.53047 5.33623L1.26548 5.14354L1.0005 5.33628C0.966165 5.36123 0.920444 5.32737 0.933101 5.28648L1.0314 4.97049L0.769361 4.77356C0.735453 4.74802 0.752908 4.69335 0.795095 4.69297L1.12083 4.69045L1.22388 4.37601C1.23717 4.33528 1.2937 4.33528 1.30709 4.37596Z" fill="#F5F5F5"/>
<path d="M1.30709 6.02157L1.41013 6.336L1.73587 6.33853C1.77806 6.3389 1.79552 6.39363 1.76161 6.41912L1.49957 6.61605L1.59787 6.93204C1.61063 6.97293 1.5648 7.00684 1.53047 6.98184L1.26548 6.78915L1.0005 6.98189C0.966165 7.00684 0.920444 6.97298 0.933101 6.93209L1.0314 6.6161L0.769361 6.41917C0.735453 6.39363 0.752908 6.33895 0.795095 6.33858L1.12083 6.33606L1.22388 6.02162C1.23717 5.98084 1.2937 5.98084 1.30709 6.02157Z" fill="#F5F5F5"/>
<path d="M1.30709 7.66583L1.41013 7.98027L1.73587 7.98279C1.77806 7.98317 1.79552 8.0379 1.76161 8.06339L1.49957 8.26031L1.59787 8.57631C1.61063 8.61719 1.5648 8.65111 1.53047 8.6261L1.26548 8.43341L1.0005 8.62616C0.966165 8.65111 0.920444 8.61725 0.933101 8.57636L1.0314 8.26037L0.769361 8.06344C0.735453 8.0379 0.752908 7.98322 0.795095 7.98285L1.12083 7.98032L1.22388 7.66589C1.23717 7.62505 1.2937 7.62505 1.30709 7.66583Z" fill="#F5F5F5"/>
<path d="M2.56185 1.89342L2.6649 2.20786L2.99064 2.21038C3.03282 2.21075 3.05028 2.26549 3.01637 2.29097L2.75433 2.4879L2.85263 2.80389C2.86539 2.84478 2.81957 2.87869 2.78524 2.85369L2.52025 2.66095L2.25526 2.85369C2.22093 2.87864 2.17521 2.84478 2.18786 2.80389L2.28616 2.4879L2.02412 2.29097C1.99021 2.26543 2.00767 2.21075 2.04986 2.21038L2.3756 2.20786L2.47864 1.89342C2.49187 1.85275 2.54851 1.85275 2.56185 1.89342Z" fill="#F5F5F5"/>
<path d="M2.56185 3.53903L2.6649 3.85347L2.99064 3.85599C3.03282 3.85636 3.05028 3.9111 3.01637 3.93658L2.75433 4.13351L2.85263 4.4495C2.86539 4.49039 2.81957 4.5243 2.78524 4.4993L2.52025 4.30656L2.25526 4.4993C2.22093 4.52425 2.17521 4.49044 2.18786 4.4495L2.28616 4.13351L2.02412 3.93658C1.99021 3.91104 2.00767 3.85636 2.04986 3.85599L2.3756 3.85347L2.47864 3.53903C2.49187 3.4983 2.54851 3.4983 2.56185 3.53903Z" fill="#F5F5F5"/>
<path d="M2.56185 5.18326L2.6649 5.49769L2.99064 5.50021C3.03282 5.50059 3.05028 5.55532 3.01637 5.58081L2.75433 5.77774L2.85263 6.09373C2.86539 6.13462 2.81957 6.16853 2.78524 6.14352L2.52025 5.95078L2.25526 6.14352C2.22093 6.16848 2.17521 6.13462 2.18786 6.09373L2.28616 5.77774L2.02412 5.58081C1.99021 5.55527 2.00767 5.50059 2.04986 5.50021L2.3756 5.49769L2.47864 5.18326C2.49187 5.14253 2.54851 5.14253 2.56185 5.18326Z" fill="#F5F5F5"/>
<path d="M2.56185 6.82872L2.6649 7.14316L2.99064 7.14568C3.03282 7.14606 3.05028 7.20079 3.01637 7.22628L2.75433 7.4232L2.85263 7.7392C2.86539 7.78008 2.81957 7.814 2.78524 7.78899L2.52025 7.59625L2.25526 7.78899C2.22093 7.81394 2.17521 7.78008 2.18786 7.7392L2.28616 7.4232L2.02412 7.22628C1.99021 7.20074 2.00767 7.14606 2.04986 7.14568L2.3756 7.14316L2.47864 6.82872C2.49187 6.78805 2.54851 6.78805 2.56185 6.82872Z" fill="#F5F5F5"/>
<path d="M3.81661 1.08627L3.91966 1.40071L4.2454 1.40323C4.28758 1.40361 4.30504 1.45834 4.27113 1.48382L4.00909 1.68075L4.10739 1.99674C4.12015 2.03763 4.07433 2.07154 4.04 2.04654L3.77501 1.8538L3.51002 2.04654C3.47569 2.07149 3.42997 2.03763 3.44262 1.99674L3.54092 1.68075L3.27888 1.48382C3.24497 1.45828 3.26243 1.40361 3.30462 1.40323L3.63036 1.40071L3.7334 1.08627C3.74669 1.04554 3.80327 1.04554 3.81661 1.08627Z" fill="#F5F5F5"/>
<path d="M3.81661 2.7318L3.91966 3.04624L4.2454 3.04876C4.28758 3.04913 4.30504 3.10387 4.27113 3.12935L4.00909 3.32628L4.10739 3.64227C4.12015 3.68316 4.07433 3.71707 4.04 3.69207L3.77501 3.49933L3.51002 3.69207C3.47569 3.71702 3.42997 3.68316 3.44262 3.64227L3.54092 3.32628L3.27888 3.12935C3.24497 3.10381 3.26243 3.04913 3.30462 3.04876L3.63036 3.04624L3.7334 2.7318C3.74669 2.69113 3.80327 2.69113 3.81661 2.7318Z" fill="#F5F5F5"/>
<path d="M3.81661 4.37596L3.91966 4.6904L4.2454 4.69292C4.28758 4.6933 4.30504 4.74803 4.27113 4.77352L4.00909 4.97044L4.10739 5.28644C4.12015 5.32733 4.07433 5.36124 4.04 5.33623L3.77501 5.14349L3.51002 5.33623C3.47569 5.36118 3.42997 5.32733 3.44262 5.28644L3.54092 4.97044L3.27888 4.77352C3.24497 4.74798 3.26243 4.6933 3.30462 4.69292L3.63036 4.6904L3.7334 4.37596C3.74669 4.33529 3.80327 4.33529 3.81661 4.37596Z" fill="#F5F5F5"/>
<path d="M3.81661 6.02157L3.91966 6.33601L4.2454 6.33853C4.28758 6.33891 4.30504 6.39364 4.27113 6.41913L4.00909 6.61605L4.10739 6.93205C4.12015 6.97293 4.07433 7.00685 4.04 6.98184L3.77501 6.7891L3.51002 6.98184C3.47569 7.00679 3.42997 6.97293 3.44262 6.93205L3.54092 6.61605L3.27888 6.41913C3.24497 6.39359 3.26243 6.33891 3.30462 6.33853L3.63036 6.33601L3.7334 6.02157C3.74669 5.98085 3.80327 5.98085 3.81661 6.02157Z" fill="#F5F5F5"/>
<path d="M3.81661 7.66584L3.91966 7.98028L4.2454 7.9828C4.28758 7.98317 4.30504 8.03791 4.27113 8.06339L4.00909 8.26032L4.10739 8.57631C4.12015 8.6172 4.07433 8.65111 4.04 8.62611L3.77501 8.43337L3.51002 8.62611C3.47569 8.65106 3.42997 8.6172 3.44262 8.57631L3.54092 8.26032L3.27888 8.06339C3.24497 8.03785 3.26243 7.98317 3.30462 7.9828L3.63036 7.98028L3.7334 7.66584C3.74669 7.62506 3.80327 7.62506 3.81661 7.66584Z" fill="#F5F5F5"/>
<path d="M5.07125 1.89342L5.1743 2.20786L5.50003 2.21038C5.54222 2.21075 5.55968 2.26549 5.52577 2.29097L5.26373 2.4879L5.36203 2.80389C5.37479 2.84478 5.32896 2.87869 5.29463 2.85369L5.02964 2.66095L4.76466 2.85369C4.73033 2.87864 4.6846 2.84478 4.69726 2.80389L4.79556 2.4879L4.53352 2.29097C4.49961 2.26543 4.51707 2.21075 4.55926 2.21038L4.88499 2.20786L4.98804 1.89342C5.00127 1.85275 5.05791 1.85275 5.07125 1.89342Z" fill="#F5F5F5"/>
<path d="M5.07125 3.53903L5.1743 3.85347L5.50003 3.85599C5.54222 3.85636 5.55968 3.9111 5.52577 3.93658L5.26373 4.13351L5.36203 4.4495C5.37479 4.49039 5.32896 4.5243 5.29463 4.4993L5.02964 4.30656L4.76466 4.4993C4.73033 4.52425 4.6846 4.49044 4.69726 4.4495L4.79556 4.13351L4.53352 3.93658C4.49961 3.91104 4.51707 3.85636 4.55926 3.85599L4.88499 3.85347L4.98804 3.53903C5.00127 3.4983 5.05791 3.4983 5.07125 3.53903Z" fill="#F5F5F5"/>
<path d="M5.07125 5.18326L5.1743 5.49769L5.50003 5.50021C5.54222 5.50059 5.55968 5.55532 5.52577 5.58081L5.26373 5.77774L5.36203 6.09373C5.37479 6.13462 5.32896 6.16853 5.29463 6.14352L5.02964 5.95078L4.76466 6.14352C4.73033 6.16848 4.6846 6.13462 4.69726 6.09373L4.79556 5.77774L4.53352 5.58081C4.49961 5.55527 4.51707 5.50059 4.55926 5.50021L4.88499 5.49769L4.98804 5.18326C5.00127 5.14253 5.05791 5.14253 5.07125 5.18326Z" fill="#F5F5F5"/>
<path d="M5.07125 6.82872L5.1743 7.14316L5.50003 7.14568C5.54222 7.14606 5.55968 7.20079 5.52577 7.22628L5.26373 7.4232L5.36203 7.7392C5.37479 7.78008 5.32896 7.814 5.29463 7.78899L5.02964 7.59625L4.76466 7.78899C4.73033 7.81394 4.6846 7.78008 4.69726 7.7392L4.79556 7.4232L4.53352 7.22628C4.49961 7.20074 4.51707 7.14606 4.55926 7.14568L4.88499 7.14316L4.98804 6.82872C5.00127 6.78805 5.05791 6.78805 5.07125 6.82872Z" fill="#F5F5F5"/>
<path d="M6.32619 1.08627L6.42923 1.40071L6.75497 1.40323C6.79716 1.40361 6.81461 1.45834 6.7807 1.48382L6.51867 1.68075L6.61696 1.99674C6.62973 2.03763 6.5839 2.07154 6.54957 2.04654L6.28453 1.8538L6.01954 2.04654C5.98521 2.07149 5.93949 2.03763 5.95214 1.99674L6.05044 1.68075L5.7884 1.48382C5.7545 1.45828 5.77195 1.40361 5.81414 1.40323L6.13988 1.40071L6.24292 1.08627C6.25626 1.04554 6.31285 1.04554 6.32619 1.08627Z" fill="#F5F5F5"/>
<path d="M6.32619 2.7318L6.42923 3.04624L6.75497 3.04876C6.79716 3.04913 6.81461 3.10387 6.7807 3.12935L6.51867 3.32628L6.61696 3.64227C6.62973 3.68316 6.5839 3.71707 6.54957 3.69207L6.28453 3.49933L6.01954 3.69207C5.98521 3.71702 5.93949 3.68316 5.95214 3.64227L6.05044 3.32628L5.7884 3.12935C5.7545 3.10381 5.77195 3.04913 5.81414 3.04876L6.13988 3.04624L6.24292 2.7318C6.25626 2.69113 6.31285 2.69113 6.32619 2.7318Z" fill="#F5F5F5"/>
<path d="M6.32619 4.37596L6.42923 4.6904L6.75497 4.69292C6.79716 4.6933 6.81461 4.74803 6.7807 4.77352L6.51867 4.97044L6.61696 5.28644C6.62973 5.32733 6.5839 5.36124 6.54957 5.33623L6.28453 5.14349L6.01954 5.33623C5.98521 5.36118 5.93949 5.32733 5.95214 5.28644L6.05044 4.97044L5.7884 4.77352C5.7545 4.74798 5.77195 4.6933 5.81414 4.69292L6.13988 4.6904L6.24292 4.37596C6.25626 4.33529 6.31285 4.33529 6.32619 4.37596Z" fill="#F5F5F5"/>
<path d="M6.32619 6.02157L6.42923 6.33601L6.75497 6.33853C6.79716 6.33891 6.81461 6.39364 6.7807 6.41913L6.51867 6.61605L6.61696 6.93205C6.62973 6.97293 6.5839 7.00685 6.54957 6.98184L6.28453 6.7891L6.01954 6.98184C5.98521 7.00679 5.93949 6.97293 5.95214 6.93205L6.05044 6.61605L5.7884 6.41913C5.7545 6.39359 5.77195 6.33891 5.81414 6.33853L6.13988 6.33601L6.24292 6.02157C6.25626 5.98085 6.31285 5.98085 6.32619 6.02157Z" fill="#F5F5F5"/>
<path d="M6.32619 7.66584L6.42923 7.98028L6.75497 7.9828C6.79716 7.98317 6.81461 8.03791 6.7807 8.06339L6.51867 8.26032L6.61696 8.57631C6.62973 8.6172 6.5839 8.65111 6.54957 8.62611L6.28453 8.43337L6.01954 8.62611C5.98521 8.65106 5.93949 8.6172 5.95214 8.57631L6.05044 8.26032L5.7884 8.06339C5.7545 8.03785 5.77195 7.98317 5.81414 7.9828L6.13988 7.98028L6.24292 7.66584C6.25626 7.62506 6.31285 7.62506 6.32619 7.66584Z" fill="#F5F5F5"/>
<path d="M7.58077 1.89342L7.68382 2.20786L8.00956 2.21038C8.05174 2.21075 8.0692 2.26549 8.03529 2.29097L7.77325 2.4879L7.87155 2.80389C7.88431 2.84478 7.83849 2.87869 7.80416 2.85369L7.53917 2.66095L7.27418 2.85369C7.23985 2.87864 7.19413 2.84478 7.20678 2.80389L7.30508 2.4879L7.04304 2.29097C7.00913 2.26543 7.02659 2.21075 7.06878 2.21038L7.39452 2.20786L7.49756 1.89342C7.5109 1.85275 7.56743 1.85275 7.58077 1.89342Z" fill="#F5F5F5"/>
<path d="M7.58077 3.53903L7.68382 3.85347L8.00956 3.85599C8.05174 3.85636 8.0692 3.9111 8.03529 3.93658L7.77325 4.13351L7.87155 4.4495C7.88431 4.49039 7.83849 4.5243 7.80416 4.4993L7.53917 4.30656L7.27418 4.4993C7.23985 4.52425 7.19413 4.49044 7.20678 4.4495L7.30508 4.13351L7.04304 3.93658C7.00913 3.91104 7.02659 3.85636 7.06878 3.85599L7.39452 3.85347L7.49756 3.53903C7.5109 3.4983 7.56743 3.4983 7.58077 3.53903Z" fill="#F5F5F5"/>
<path d="M7.58077 5.18326L7.68382 5.49769L8.00956 5.50021C8.05174 5.50059 8.0692 5.55532 8.03529 5.58081L7.77325 5.77774L7.87155 6.09373C7.88431 6.13462 7.83849 6.16853 7.80416 6.14352L7.53917 5.95078L7.27418 6.14352C7.23985 6.16848 7.19413 6.13462 7.20678 6.09373L7.30508 5.77774L7.04304 5.58081C7.00913 5.55527 7.02659 5.50059 7.06878 5.50021L7.39452 5.49769L7.49756 5.18326C7.5109 5.14253 7.56743 5.14253 7.58077 5.18326Z" fill="#F5F5F5"/>
<path d="M7.58077 6.82872L7.68382 7.14316L8.00956 7.14568C8.05174 7.14606 8.0692 7.20079 8.03529 7.22628L7.77325 7.4232L7.87155 7.7392C7.88431 7.78008 7.83849 7.814 7.80416 7.78899L7.53917 7.59625L7.27418 7.78899C7.23985 7.81394 7.19413 7.78008 7.20678 7.7392L7.30508 7.4232L7.04304 7.22628C7.00913 7.20074 7.02659 7.14606 7.06878 7.14568L7.39452 7.14316L7.49756 6.82872C7.5109 6.78805 7.56743 6.78805 7.58077 6.82872Z" fill="#F5F5F5"/>
<path d="M8.83517 1.08627L8.93821 1.40071L9.26395 1.40323C9.30614 1.40361 9.32359 1.45834 9.28968 1.48382L9.02765 1.68075L9.12595 1.99674C9.13871 2.03763 9.09288 2.07154 9.05855 2.04654L8.79356 1.8538L8.52857 2.04654C8.49424 2.07149 8.44852 2.03763 8.46118 1.99674L8.55947 1.68075L8.29744 1.48382C8.26353 1.45828 8.28098 1.40361 8.32317 1.40323L8.64891 1.40071L8.75195 1.08627C8.76519 1.04554 8.82183 1.04554 8.83517 1.08627Z" fill="#F5F5F5"/>
<path d="M8.83517 2.7318L8.93821 3.04624L9.26395 3.04876C9.30614 3.04913 9.32359 3.10387 9.28968 3.12935L9.02765 3.32628L9.12595 3.64227C9.13871 3.68316 9.09288 3.71707 9.05855 3.69207L8.79356 3.49933L8.52857 3.69207C8.49424 3.71702 8.44852 3.68316 8.46118 3.64227L8.55947 3.32628L8.29744 3.12935C8.26353 3.10381 8.28098 3.04913 8.32317 3.04876L8.64891 3.04624L8.75195 2.7318C8.76519 2.69113 8.82183 2.69113 8.83517 2.7318Z" fill="#F5F5F5"/>
<path d="M8.83517 4.37596L8.93821 4.6904L9.26395 4.69292C9.30614 4.6933 9.32359 4.74803 9.28968 4.77352L9.02765 4.97044L9.12595 5.28644C9.13871 5.32733 9.09288 5.36124 9.05855 5.33623L8.79356 5.14349L8.52857 5.33623C8.49424 5.36118 8.44852 5.32733 8.46118 5.28644L8.55947 4.97044L8.29744 4.77352C8.26353 4.74798 8.28098 4.6933 8.32317 4.69292L8.64891 4.6904L8.75195 4.37596C8.76519 4.33529 8.82183 4.33529 8.83517 4.37596Z" fill="#F5F5F5"/>
<path d="M8.83517 6.02157L8.93821 6.33601L9.26395 6.33853C9.30614 6.33891 9.32359 6.39364 9.28968 6.41913L9.02765 6.61605L9.12595 6.93205C9.13871 6.97293 9.09288 7.00685 9.05855 6.98184L8.79356 6.7891L8.52857 6.98184C8.49424 7.00679 8.44852 6.97293 8.46118 6.93205L8.55947 6.61605L8.29744 6.41913C8.26353 6.39359 8.28098 6.33891 8.32317 6.33853L8.64891 6.33601L8.75195 6.02157C8.76519 5.98085 8.82183 5.98085 8.83517 6.02157Z" fill="#F5F5F5"/>
<path d="M8.83517 7.66584L8.93821 7.98028L9.26395 7.9828C9.30614 7.98317 9.32359 8.03791 9.28968 8.06339L9.02765 8.26032L9.12595 8.57631C9.13871 8.6172 9.09288 8.65111 9.05855 8.62611L8.79356 8.43337L8.52857 8.62611C8.49424 8.65106 8.44852 8.6172 8.46118 8.57631L8.55947 8.26032L8.29744 8.06339C8.26353 8.03785 8.28098 7.98317 8.32317 7.9828L8.64891 7.98028L8.75195 7.66584C8.76519 7.62506 8.82183 7.62506 8.83517 7.66584Z" fill="#F5F5F5"/>
<path d="M10.0901 1.89342L10.1931 2.20786L10.5188 2.21038C10.561 2.21075 10.5785 2.26549 10.5446 2.29097L10.2825 2.4879L10.3808 2.80389C10.3936 2.84478 10.3478 2.87869 10.3134 2.85369L10.0484 2.66095L9.78345 2.85369C9.74912 2.87864 9.7034 2.84478 9.71606 2.80389L9.81436 2.4879L9.55232 2.29097C9.51841 2.26543 9.53587 2.21075 9.57805 2.21038L9.90379 2.20786L10.0068 1.89342C10.0201 1.85275 10.0768 1.85275 10.0901 1.89342Z" fill="#F5F5F5"/>
<path d="M10.0901 3.53903L10.1931 3.85347L10.5188 3.85599C10.561 3.85636 10.5785 3.9111 10.5446 3.93658L10.2825 4.13351L10.3808 4.4495C10.3936 4.49039 10.3478 4.5243 10.3134 4.4993L10.0484 4.30656L9.78345 4.4993C9.74912 4.52425 9.7034 4.49044 9.71606 4.4495L9.81436 4.13351L9.55232 3.93658C9.51841 3.91104 9.53587 3.85636 9.57805 3.85599L9.90379 3.85347L10.0068 3.53903C10.0201 3.4983 10.0768 3.4983 10.0901 3.53903Z" fill="#F5F5F5"/>
<path d="M10.0901 5.18326L10.1931 5.49769L10.5188 5.50021C10.561 5.50059 10.5785 5.55532 10.5446 5.58081L10.2825 5.77774L10.3808 6.09373C10.3936 6.13462 10.3478 6.16853 10.3134 6.14352L10.0484 5.95078L9.78345 6.14352C9.74912 6.16848 9.7034 6.13462 9.71606 6.09373L9.81436 5.77774L9.55232 5.58081C9.51841 5.55527 9.53587 5.50059 9.57805 5.50021L9.90379 5.49769L10.0068 5.18326C10.0201 5.14253 10.0768 5.14253 10.0901 5.18326Z" fill="#F5F5F5"/>
<path d="M10.0901 6.82872L10.1931 7.14316L10.5188 7.14568C10.561 7.14606 10.5785 7.20079 10.5446 7.22628L10.2825 7.4232L10.3808 7.7392C10.3936 7.78008 10.3478 7.814 10.3134 7.78899L10.0484 7.59625L9.78345 7.78899C9.74912 7.81394 9.7034 7.78008 9.71606 7.7392L9.81436 7.4232L9.55232 7.22628C9.51841 7.20074 9.53587 7.14606 9.57805 7.14568L9.90379 7.14316L10.0068 6.82872C10.0201 6.78805 10.0768 6.78805 10.0901 6.82872Z" fill="#F5F5F5"/>
<path d="M11.3451 1.08627L11.4481 1.40071L11.7738 1.40323C11.816 1.40361 11.8335 1.45834 11.7996 1.48382L11.5375 1.68075L11.6358 1.99674C11.6486 2.03763 11.6028 2.07154 11.5684 2.04654L11.3034 1.8538L11.0385 2.04654C11.0041 2.07149 10.9584 2.03763 10.9711 1.99674L11.0694 1.68075L10.8073 1.48382C10.7734 1.45828 10.7909 1.40361 10.8331 1.40323L11.1588 1.40071L11.2618 1.08627C11.2751 1.04554 11.3317 1.04554 11.3451 1.08627Z" fill="#F5F5F5"/>
<path d="M11.3451 2.7318L11.4481 3.04624L11.7738 3.04876C11.816 3.04913 11.8335 3.10387 11.7996 3.12935L11.5375 3.32628L11.6358 3.64227C11.6486 3.68316 11.6028 3.71707 11.5684 3.69207L11.3034 3.49933L11.0385 3.69207C11.0041 3.71702 10.9584 3.68316 10.9711 3.64227L11.0694 3.32628L10.8073 3.12935C10.7734 3.10381 10.7909 3.04913 10.8331 3.04876L11.1588 3.04624L11.2618 2.7318C11.2751 2.69113 11.3317 2.69113 11.3451 2.7318Z" fill="#F5F5F5"/>
<path d="M11.3451 4.37596L11.4481 4.6904L11.7738 4.69292C11.816 4.6933 11.8335 4.74803 11.7996 4.77352L11.5375 4.97044L11.6358 5.28644C11.6486 5.32733 11.6028 5.36124 11.5684 5.33623L11.3034 5.14349L11.0385 5.33623C11.0041 5.36118 10.9584 5.32733 10.9711 5.28644L11.0694 4.97044L10.8073 4.77352C10.7734 4.74798 10.7909 4.6933 10.8331 4.69292L11.1588 4.6904L11.2618 4.37596C11.2751 4.33529 11.3317 4.33529 11.3451 4.37596Z" fill="#F5F5F5"/>
<path d="M11.3451 6.02157L11.4481 6.33601L11.7738 6.33853C11.816 6.33891 11.8335 6.39364 11.7996 6.41913L11.5375 6.61605L11.6358 6.93205C11.6486 6.97293 11.6028 7.00685 11.5684 6.98184L11.3034 6.7891L11.0385 6.98184C11.0041 7.00679 10.9584 6.97293 10.9711 6.93205L11.0694 6.61605L10.8073 6.41913C10.7734 6.39359 10.7909 6.33891 10.8331 6.33853L11.1588 6.33601L11.2618 6.02157C11.2751 5.98085 11.3317 5.98085 11.3451 6.02157Z" fill="#F5F5F5"/>
<path d="M11.3451 7.66584L11.4481 7.98028L11.7738 7.9828C11.816 7.98317 11.8335 8.03791 11.7996 8.06339L11.5375 8.26032L11.6358 8.57631C11.6486 8.6172 11.6028 8.65111 11.5684 8.62611L11.3034 8.43337L11.0385 8.62611C11.0041 8.65106 10.9584 8.6172 10.9711 8.57631L11.0694 8.26032L10.8073 8.06339C10.7734 8.03785 10.7909 7.98317 10.8331 7.9828L11.1588 7.98028L11.2618 7.66584C11.2751 7.62506 11.3317 7.62506 11.3451 7.66584Z" fill="#F5F5F5"/>
</svg>
