<svg width="44" height="44" viewBox="0 0 44 44" fill="none" xmlns="http://www.w3.org/2000/svg">
<path d="M40.0002 11.3808C40.0002 10.2903 39.5612 9.2445 38.7798 8.47342C37.9984 7.70234 36.9386 7.26915 35.8336 7.26915H31.7318V5.6519C31.7318 5.40958 31.6343 5.17717 31.4607 5.00582C31.287 4.83447 31.0515 4.73821 30.8059 4.73821C30.5604 4.73821 30.3249 4.83447 30.1512 5.00582C29.9776 5.17717 29.88 5.40958 29.88 5.6519V7.26915H13.9175V5.6519C13.9175 5.40958 13.8199 5.17717 13.6463 5.00582C13.4726 4.83447 13.2371 4.73821 12.9916 4.73821C12.746 4.73821 12.5105 4.83447 12.3369 5.00582C12.1632 5.17717 12.0657 5.40958 12.0657 5.6519V7.26915H7.96393C6.85888 7.26915 5.7991 7.70234 5.01772 8.47342C4.23634 9.2445 3.79736 10.2903 3.79736 11.3808V34.1502C3.79736 35.2406 4.23634 36.2864 5.01772 37.0575C5.7991 37.8286 6.85888 38.2618 7.96393 38.2618H35.8336C36.9386 38.2618 37.9984 37.8286 38.7798 37.0575C39.5612 36.2864 40.0002 35.2406 40.0002 34.1502V11.3808ZM38.1484 34.1547C38.1484 34.4547 38.0885 34.7517 37.9722 35.0289C37.8558 35.306 37.6853 35.5578 37.4704 35.7699C37.2554 35.982 37.0003 36.1503 36.7194 36.2651C36.4386 36.3799 36.1376 36.439 35.8336 36.439H7.96393C7.65995 36.439 7.35895 36.3799 7.07811 36.2651C6.79727 36.1503 6.54209 35.982 6.32715 35.7699C6.1122 35.5578 5.9417 35.306 5.82537 35.0289C5.70904 34.7517 5.64917 34.4547 5.64917 34.1547V18.2792H38.1484V34.1547ZM38.1484 16.4564H5.64917V11.3808C5.64917 10.775 5.89304 10.194 6.32715 9.76559C6.76125 9.33721 7.35001 9.09655 7.96393 9.09655H12.0703V11.6275C12.0703 11.8698 12.1679 12.1022 12.3415 12.2736C12.5151 12.4449 12.7506 12.5412 12.9962 12.5412C13.2418 12.5412 13.4773 12.4449 13.6509 12.2736C13.8246 12.1022 13.9221 11.8698 13.9221 11.6275V9.09655H29.88V11.6275C29.88 11.8698 29.9776 12.1022 30.1512 12.2736C30.3249 12.4449 30.5604 12.5412 30.8059 12.5412C31.0515 12.5412 31.287 12.4449 31.4607 12.2736C31.6343 12.1022 31.7318 11.8698 31.7318 11.6275V9.09655H35.8336C36.4475 9.09655 37.0363 9.33721 37.4704 9.76559C37.9045 10.194 38.1484 10.775 38.1484 11.3808V16.4564Z" fill="white"/>
<path d="M14.9592 21.0432H14.9546C13.9242 21.0432 13.0889 21.8674 13.0889 22.8843V22.8888C13.0889 23.9056 13.9242 24.7299 14.9546 24.7299H14.9592C15.9896 24.7299 16.8249 23.9056 16.8249 22.8888V22.8843C16.8249 21.8674 15.9896 21.0432 14.9592 21.0432Z" fill="white"/>
<path d="M19.5886 21.0432H19.584C18.5536 21.0432 17.7183 21.8674 17.7183 22.8843V22.8888C17.7183 23.9056 18.5536 24.7299 19.584 24.7299H19.5886C20.619 24.7299 21.4543 23.9056 21.4543 22.8888V22.8843C21.4543 21.8674 20.619 21.0432 19.5886 21.0432Z" fill="white"/>
<path d="M24.218 21.0432H24.2134C23.183 21.0432 22.3477 21.8674 22.3477 22.8843V22.8888C22.3477 23.9056 23.183 24.7299 24.2134 24.7299H24.218C25.2484 24.7299 26.0837 23.9056 26.0837 22.8888V22.8843C26.0837 21.8674 25.2484 21.0432 24.218 21.0432Z" fill="white"/>
<path d="M28.8479 21.0432H28.8432C27.8128 21.0432 26.9775 21.8674 26.9775 22.8843V22.8888C26.9775 23.9056 27.8128 24.7299 28.8432 24.7299H28.8479C29.8783 24.7299 30.7136 23.9056 30.7136 22.8888V22.8843C30.7136 21.8674 29.8783 21.0432 28.8479 21.0432Z" fill="white"/>
<path d="M33.4773 21.0432H33.4726C32.4422 21.0432 31.6069 21.8674 31.6069 22.8843V22.8888C31.6069 23.9056 32.4422 24.7299 33.4726 24.7299H33.4773C34.5077 24.7299 35.343 23.9056 35.343 22.8888V22.8843C35.343 21.8674 34.5077 21.0432 33.4773 21.0432Z" fill="white"/>
<path d="M10.3298 25.6116H10.3252C9.29477 25.6116 8.45947 26.4359 8.45947 27.4527V27.4573C8.45947 28.4741 9.29477 29.2984 10.3252 29.2984H10.3298C11.3602 29.2984 12.1955 28.4741 12.1955 27.4573V27.4527C12.1955 26.4359 11.3602 25.6116 10.3298 25.6116Z" fill="white"/>
<path d="M14.9592 25.6116H14.9546C13.9242 25.6116 13.0889 26.4359 13.0889 27.4527V27.4573C13.0889 28.4741 13.9242 29.2984 14.9546 29.2984H14.9592C15.9896 29.2984 16.8249 28.4741 16.8249 27.4573V27.4527C16.8249 26.4359 15.9896 25.6116 14.9592 25.6116Z" fill="white"/>
<path d="M19.5886 25.6116H19.584C18.5536 25.6116 17.7183 26.4359 17.7183 27.4527V27.4573C17.7183 28.4741 18.5536 29.2984 19.584 29.2984H19.5886C20.619 29.2984 21.4543 28.4741 21.4543 27.4573V27.4527C21.4543 26.4359 20.619 25.6116 19.5886 25.6116Z" fill="white"/>
<path d="M24.218 25.6116H24.2134C23.183 25.6116 22.3477 26.4359 22.3477 27.4527V27.4573C22.3477 28.4741 23.183 29.2984 24.2134 29.2984H24.218C25.2484 29.2984 26.0837 28.4741 26.0837 27.4573V27.4527C26.0837 26.4359 25.2484 25.6116 24.218 25.6116Z" fill="white"/>
<path d="M28.8479 25.6116H28.8432C27.8128 25.6116 26.9775 26.4359 26.9775 27.4527V27.4573C26.9775 28.4741 27.8128 29.2984 28.8432 29.2984H28.8479C29.8783 29.2984 30.7136 28.4741 30.7136 27.4573V27.4527C30.7136 26.4359 29.8783 25.6116 28.8479 25.6116Z" fill="white"/>
<path d="M33.4773 25.6116H33.4726C32.4422 25.6116 31.6069 26.4359 31.6069 27.4527V27.4573C31.6069 28.4741 32.4422 29.2984 33.4726 29.2984H33.4773C34.5077 29.2984 35.343 28.4741 35.343 27.4573V27.4527C35.343 26.4359 34.5077 25.6116 33.4773 25.6116Z" fill="white"/>
<path d="M10.3298 30.1801H10.3252C9.29477 30.1801 8.45947 31.0044 8.45947 32.0212V32.0258C8.45947 33.0426 9.29477 33.8669 10.3252 33.8669H10.3298C11.3602 33.8669 12.1955 33.0426 12.1955 32.0258V32.0212C12.1955 31.0044 11.3602 30.1801 10.3298 30.1801Z" fill="white"/>
<path d="M14.9592 30.1801H14.9546C13.9242 30.1801 13.0889 31.0044 13.0889 32.0212V32.0258C13.0889 33.0426 13.9242 33.8669 14.9546 33.8669H14.9592C15.9896 33.8669 16.8249 33.0426 16.8249 32.0258V32.0212C16.8249 31.0044 15.9896 30.1801 14.9592 30.1801Z" fill="white"/>
<path d="M19.5886 30.1801H19.584C18.5536 30.1801 17.7183 31.0044 17.7183 32.0212V32.0258C17.7183 33.0426 18.5536 33.8669 19.584 33.8669H19.5886C20.619 33.8669 21.4543 33.0426 21.4543 32.0258V32.0212C21.4543 31.0044 20.619 30.1801 19.5886 30.1801Z" fill="white"/>
<path d="M24.218 30.1801H24.2134C23.183 30.1801 22.3477 31.0044 22.3477 32.0212V32.0258C22.3477 33.0426 23.183 33.8669 24.2134 33.8669H24.218C25.2484 33.8669 26.0837 33.0426 26.0837 32.0258V32.0212C26.0837 31.0044 25.2484 30.1801 24.218 30.1801Z" fill="white"/>
<path d="M28.8479 30.1801H28.8432C27.8128 30.1801 26.9775 31.0044 26.9775 32.0212V32.0258C26.9775 33.0426 27.8128 33.8669 28.8432 33.8669H28.8479C29.8783 33.8669 30.7136 33.0426 30.7136 32.0258V32.0212C30.7136 31.0044 29.8783 30.1801 28.8479 30.1801Z" fill="white"/>
</svg>
