<svg width="44" height="44" viewBox="0 0 44 44" fill="none" xmlns="http://www.w3.org/2000/svg">
<path d="M8.0865 37.7672L12.8921 28.0068C12.988 27.812 13.1542 27.6628 13.3535 27.5814L15.7442 26.5595L11.6017 19.8932C11.5918 19.8772 11.5825 19.861 11.5736 19.8445C10.75 18.301 10.3324 16.6331 10.3324 14.8874C10.3324 11.9508 11.5317 9.19765 13.7095 7.13532C15.8869 5.07346 18.7716 3.95982 21.832 4.00111C24.8042 4.04069 27.6028 5.18701 29.7122 7.22904C31.8215 9.27093 32.9928 11.9672 33.0104 14.8214C33.0212 16.5656 32.592 18.3025 31.7694 19.8444C31.7606 19.8609 31.7513 19.8772 31.7414 19.8932L27.5989 26.5594L30.0035 27.5869C30.2002 27.6709 30.359 27.8198 30.4509 28.0067L35.2564 37.7672C35.4173 38.0936 35.3494 38.4818 35.0864 38.74C34.8235 38.9982 34.4211 39.0721 34.0774 38.9253L28.0573 36.3518L22.0372 38.9253C21.8043 39.0247 21.5384 39.0247 21.3055 38.9253L15.2853 36.3518L9.26521 38.9253C9.14759 38.9755 9.02308 39 8.89962 39C8.66247 39 8.42916 38.9099 8.25623 38.74C7.99345 38.4818 7.92567 38.0938 8.0865 37.7672ZM30.1812 19.0326C30.8739 17.7248 31.2206 16.3116 31.2114 14.8318C31.1809 9.88056 26.962 5.7967 21.8069 5.72814C19.2321 5.69492 16.8045 6.63041 14.9727 8.36517C13.1402 10.1003 12.1312 12.4166 12.1312 14.8875C12.1312 16.3476 12.4778 17.742 13.1616 19.0326L20.899 31.4842C21.1352 31.8642 21.5178 31.9053 21.6714 31.9053C21.825 31.9053 22.2076 31.8642 22.4438 31.4842L30.1812 19.0326ZM14.9197 34.6176C15.1526 34.5181 15.4185 34.5181 15.6514 34.6176L21.6715 37.191L27.6916 34.6176C27.9245 34.5181 28.1904 34.5181 28.4233 34.6176L32.5938 36.4004L28.9672 29.0347L26.6706 28.0533L23.9888 32.3691C23.4973 33.1601 22.631 33.6324 21.6716 33.6324C20.7123 33.6324 19.846 33.1601 19.3544 32.3691L16.6727 28.0534L14.3758 29.0351L10.7495 36.4004L14.9197 34.6176Z" fill="white"/>
<path d="M21.6713 10.9458C23.9349 10.9458 25.7764 12.7139 25.7764 14.8873C25.7764 17.0606 23.9349 18.8287 21.6713 18.8287C19.4078 18.8288 17.5663 17.0606 17.5663 14.8873C17.5663 12.7139 19.4078 10.9458 21.6713 10.9458ZM21.6713 17.1016C22.9429 17.1016 23.9775 16.1084 23.9775 14.8873C23.9775 13.6663 22.943 12.673 21.6713 12.673C20.3997 12.673 19.3652 13.6663 19.3652 14.8873C19.3652 16.1082 20.3997 17.1016 21.6713 17.1016Z" fill="white"/>
</svg>
